<?xml version="1.0" encoding="UTF-8" standalone="no"?>
<!DOCTYPE svg PUBLIC "-//W3C//DTD SVG 1.1//EN"
 "http://www.w3.org/Graphics/SVG/1.1/DTD/svg11.dtd">
<!-- Generated by graphviz version 2.50.0 (0)
 -->
<!-- Pages: 1 -->
<svg width="302pt" height="305pt"
 viewBox="0.00 0.00 301.79 305.00" xmlns="http://www.w3.org/2000/svg" xmlns:xlink="http://www.w3.org/1999/xlink">
<g id="graph0" class="graph" transform="scale(1 1) rotate(0) translate(4 301)">
<polygon fill="white" stroke="transparent" points="-4,4 -4,-301 297.79,-301 297.79,4 -4,4"/>
<!-- 140276097408016 -->
<g id="node1" class="node">
<title>140276097408016</title>
<ellipse fill="#28a745" fill-opacity="0.501961" stroke="#28a745" stroke-opacity="0.501961" cx="147.54" cy="-279" rx="29.5" ry="18"/>
<text text-anchor="middle" x="147.54" y="-275.3" font-family="Times,serif" font-size="14.00">Input</text>
</g>
<!-- 140276096546640 -->
<g id="node3" class="node">
<title>140276096546640</title>
<ellipse fill="#28a745" fill-opacity="0.501961" stroke="#28a745" stroke-opacity="0.501961" cx="69.54" cy="-192" rx="69.59" ry="18"/>
<text text-anchor="middle" x="69.54" y="-188.3" font-family="Times,serif" font-size="14.00">Relative Change</text>
</g>
<!-- 140276097408016&#45;&gt;140276096546640 -->
<g id="edge4" class="edge">
<title>140276097408016&#45;&gt;140276096546640</title>
<path fill="none" stroke="black" d="M133.6,-262.8C122.06,-250.23 105.46,-232.14 92.04,-217.52"/>
<polygon fill="black" stroke="black" points="94.31,-214.81 84.97,-209.81 89.15,-219.55 94.31,-214.81"/>
<text text-anchor="middle" x="125.04" y="-231.8" font-family="Times,serif" font-size="14.00">data</text>
</g>
<!-- 140276096196560 -->
<g id="node5" class="node">
<title>140276096196560</title>
<ellipse fill="#28a745" fill-opacity="0.501961" stroke="#28a745" stroke-opacity="0.501961" cx="225.54" cy="-192" rx="68.49" ry="18"/>
<text text-anchor="middle" x="225.54" y="-188.3" font-family="Times,serif" font-size="14.00">Summary Table</text>
</g>
<!-- 140276097408016&#45;&gt;140276096196560 -->
<g id="edge5" class="edge">
<title>140276097408016&#45;&gt;140276096196560</title>
<path fill="none" stroke="black" d="M161.49,-262.8C173.02,-250.23 189.63,-232.14 203.04,-217.52"/>
<polygon fill="black" stroke="black" points="205.93,-219.55 210.12,-209.81 200.78,-214.81 205.93,-219.55"/>
<text text-anchor="middle" x="203.04" y="-231.8" font-family="Times,serif" font-size="14.00">data</text>
</g>
<!-- 140276097090896 -->
<g id="node2" class="node">
<title>140276097090896</title>
<ellipse fill="#28a745" fill-opacity="0.501961" stroke="#28a745" stroke-opacity="0.501961" cx="46.54" cy="-105" rx="43.59" ry="18"/>
<text text-anchor="middle" x="46.54" y="-101.3" font-family="Times,serif" font-size="14.00">Line Plot</text>
</g>
<!-- 140276096546640&#45;&gt;140276097090896 -->
<g id="edge3" class="edge">
<title>140276096546640&#45;&gt;140276097090896</title>
<path fill="none" stroke="black" d="M64.89,-173.8C61.71,-162.05 57.43,-146.24 53.81,-132.84"/>
<polygon fill="black" stroke="black" points="57.18,-131.91 51.19,-123.18 50.42,-133.74 57.18,-131.91"/>
<text text-anchor="middle" x="71.04" y="-144.8" font-family="Times,serif" font-size="14.00">data</text>
</g>
<!-- 140276097138512 -->
<g id="node4" class="node">
<title>140276097138512</title>
<ellipse fill="#28a745" fill-opacity="0.501961" stroke="#28a745" stroke-opacity="0.501961" cx="176.54" cy="-105" rx="68.49" ry="18"/>
<text text-anchor="middle" x="176.54" y="-101.3" font-family="Times,serif" font-size="14.00">Summary Table</text>
</g>
<!-- 140276096546640&#45;&gt;140276097138512 -->
<g id="edge2" class="edge">
<title>140276096546640&#45;&gt;140276097138512</title>
<path fill="none" stroke="black" d="M90.17,-174.61C106.61,-161.56 129.79,-143.14 148,-128.67"/>
<polygon fill="black" stroke="black" points="150.32,-131.3 155.98,-122.34 145.97,-125.82 150.32,-131.3"/>
<text text-anchor="middle" x="141.04" y="-144.8" font-family="Times,serif" font-size="14.00">data</text>
</g>
<!-- 140276589989840 -->
<g id="node6" class="node">
<title>140276589989840</title>
<ellipse fill="#28a745" fill-opacity="0.501961" stroke="#28a745" stroke-opacity="0.501961" cx="176.54" cy="-18" rx="48.19" ry="18"/>
<text text-anchor="middle" x="176.54" y="-14.3" font-family="Times,serif" font-size="14.00">Pivot Data</text>
</g>
<!-- 140276097138512&#45;&gt;140276589989840 -->
<g id="edge1" class="edge">
<title>140276097138512&#45;&gt;140276589989840</title>
<path fill="none" stroke="black" d="M176.54,-86.8C176.54,-75.16 176.54,-59.55 176.54,-46.24"/>
<polygon fill="black" stroke="black" points="180.04,-46.18 176.54,-36.18 173.04,-46.18 180.04,-46.18"/>
<text text-anchor="middle" x="188.04" y="-57.8" font-family="Times,serif" font-size="14.00">data</text>
</g>
</g>
</svg>
